# xmcd
#
# Track frame offsets: 
#        150
#        31727
#        63229
#        80031
#        95558
#        101485
#        110262
#        121589
#        147916
#        156018
#
# Disc length: 2443 seconds
#
# Revision: 0
# Processed by: cddbd v1.5.2PL0 Copyright (c) Steve Scherf et al.
# Submitted via: ExactAudioCopy v0.99pb1
#
DISCID=7509890a
DTITLE=BB King - Filmore East - Early Show
DYEAR=1971
DGENRE=Blues
TTITLE0=Let me love you
TTITLE1=Walkin' doctor Bill
TTITLE2=You're so fine
TTITLE3=Aint that just like a woman
TTITLE4=Instrumental
TTITLE5=Instrumental
TTITLE6=Please accept my love
TTITLE7=The thrill is gone
TTITLE8=Instrumental
TTITLE9=Sweet sixteen
EXTD=
EXTT0=
EXTT1=
EXTT2=
EXTT3=
EXTT4=
EXTT5=
EXTT6=
EXTT7=
EXTT8=
EXTT9=
PLAYORDER=
